
<svg xmlns="http://www.w3.org/2000/svg" viewBox="0 0 380 64" aria-label="Accessio logo lockup">
  <g fill="none" stroke="#e8ebf2" stroke-width="2.25" stroke-linecap="round" stroke-linejoin="round" transform="translate(0,0)">
    <path d="M14 38 C 14 28, 22 22, 32 22 C 42 22, 50 26, 52 32 L 56 30 L 52 36 C 50 44, 42 50, 32 50 C 22 50, 14 46, 14 38 Z"></path>
    <circle cx="44" cy="30" r="6"></circle>
    <path d="M50 30 L 58 28 L 50 32 Z" fill="#e8ebf2"></path>
    <path d="M22 34 Q 28 28, 36 32 Q 32 38, 24 38 Z"></path>
    <path d="M14 36 L 8 34 L 14 40"></path>
    <path d="M28 50 L 28 56"></path>
    <path d="M36 50 L 36 56"></path>
  </g>
  
  <circle cx="45" cy="29" r="1.8" fill="#f59321"></circle>
  <text x="76" y="46" font-family="Inter Tight, -apple-system, sans-serif" font-weight="800" font-size="44" letter-spacing="-1.6" fill="#e8ebf2">accessio</text>
</svg>